{"title":"Phillauri 2017 Hindi Movies DVDRip XviD AAC New +Sample ~ ☻rDX☻","magnet":"magnet:?xt=urn:btih:fa58f51d391c5d216700bbc62b0d009a2a3401cb&dn=Phillauri+2017+Hindi+Movies+DVDRip+XviD+AAC+New+%2BSample+%7E+%E2%98%BBrDX%E2%98%BB&tr=udp%3A%2F%2Ftracker.leechers-paradise.org%3A6969&tr=udp%3A%2F%2Fzer0day.ch%3A1337&tr=udp%3A%2F%2Fopen.demonii.com%3A1337&tr=udp%3A%2F%2Ftracker.coppersurfer.tk%3A6969&tr=udp%3A%2F%2Fexodus.desync.com%3A6969","uploader":"basicssom","categoryP":"video","categoryS":"movies","size":"740038779","seeders":"0","leechers":"0","description":"----------------------------------------------------------------\r\nPhillauri 2017 Hindi Movies DVDRip XviD AAC New Source with Sample &#x263B;rDX&#x263B;\r\n\r\nSCREEN SHOTS &amp; POSTER:\r\n   <a href=\"\nhttp://postimage.co.nr/2017/5/fixeddeposite/index.html\" rel=\"nofollow\" target=\"_NEW\">\nhttp://postimage.co.nr/2017/5/fixeddeposite/index.html</a>  <a href=\"\nhttp://postimage.co.nr/2017/5/fixeddeposite/1.html\" rel=\"nofollow\" target=\"_NEW\">\nhttp://postimage.co.nr/2017/5/fixeddeposite/1.html</a>   <a href=\"\nhttp://postimage.co.nr/2017/5/fixeddeposite/2.html\" rel=\"nofollow\" target=\"_NEW\">\nhttp://postimage.co.nr/2017/5/fixeddeposite/2.html</a>   <a href=\"\nhttp://postimage.co.nr/2017/5/fixeddeposite/3.html\" rel=\"nofollow\" target=\"_NEW\">\nhttp://postimage.co.nr/2017/5/fixeddeposite/3.html</a>   <a href=\"\nhttp://postimage.co.nr/2017/5/fixeddeposite/4.html\" rel=\"nofollow\" target=\"_NEW\">\nhttp://postimage.co.nr/2017/5/fixeddeposite/4.html</a>   <a href=\"\nhttp://postimage.co.nr/2017/5/fixeddeposite/5.html\" rel=\"nofollow\" target=\"_NEW\">\nhttp://postimage.co.nr/2017/5/fixeddeposite/5.html</a>   <a href=\"\nhttp://postimage.co.nr/2017/5/fixeddeposite/6.html\" rel=\"nofollow\" target=\"_NEW\">\nhttp://postimage.co.nr/2017/5/fixeddeposite/6.html</a>   <a href=\"\nhttp://postimage.co.nr/2017/5/fixeddeposite/7.html\" rel=\"nofollow\" target=\"_NEW\">\nhttp://postimage.co.nr/2017/5/fixeddeposite/7.html</a>   <a href=\"\nhttp://postimage.co.nr/2017/5/fixeddeposite/8.html\" rel=\"nofollow\" target=\"_NEW\">\nhttp://postimage.co.nr/2017/5/fixeddeposite/8.html</a>   <a href=\"\nhttp://postimage.co.nr/2017/5/fixeddeposite/9.html\" rel=\"nofollow\" target=\"_NEW\">\nhttp://postimage.co.nr/2017/5/fixeddeposite/9.html</a>   <a href=\"\nhttp://postimage.co.nr/2017/5/fixeddeposite/10.html\" rel=\"nofollow\" target=\"_NEW\">\nhttp://postimage.co.nr/2017/5/fixeddeposite/10.html</a>\r\n\r\nFile size                                : 698 MiB\r\nDuration                                 : 2 h 10 min\r\nOverall bit rate mode                    : Constant\r\nOverall bit rate                         : 749 kb/s\r\nMovie name                               : Phillauri 2017 Hindi Movies DVDRip XviD AAC New Source &#x263B;rDX&#x263B;\r\n\r\nVideo\r\nID                                       : 2\r\nFormat                                   : AVC\r\nFormat/Info                              : Advanced Video Codec\r\nFormat profile                           : <a class=\"__cf_email__\" href=\"/cdn-cgi/l/email-protection\" data-cfemail=\"d79ab6beb9979be5f9e6\">[email&#xA0;protected]</a><script data-cfhash=\"f9e31\" type=\"text/javascript\">/* <![CDATA[ */!function(t,e,r,n,c,a,p){try{t=document.currentScript||function(){for(t=document.getElementsByTagName('script'),e=t.length;e--;)if(t[e].getAttribute('data-cfhash'))return t[e]}();if(t&&(c=t.previousSibling)){p=t.parentNode;if(a=c.getAttribute('data-cfemail')){for(e='',r='0x'+a.substr(0,2)|0,n=2;a.length-n;n+=2)e+='%'+('0'+('0x'+a.substr(n,2)^r).toString(16)).slice(-2);p.replaceChild(document.createTextNode(decodeURIComponent(e)),c)}p.removeChild(t)}}catch(u){}}()/* ]]> */</script>\r\nFormat settings, CABAC                   : Yes\r\nFormat settings, ReFrames                : 2 frames\r\nFormat settings, GOP                     : M=1, N=12\r\nCodec ID                                 : V_MPEG4/ISO/AVC\r\nDuration                                 : 2 h 10 min\r\nBit rate mode                            : Constant\r\nBit rate                                 : 622 kb/s\r\nWidth                                    : 640 pixels\r\nHeight                                   : 272 pixels\r\nDisplay aspect ratio                     : 2.35:1\r\nFrame rate mode                          : Constant\r\nFrame rate                               : 25.000 FPS\r\nColor space                              : YUV\r\nChroma subsampling                       : 4:2:0\r\nBit depth                                : 8 bits\r\nScan type                                : Progressive\r\nBits/(Pixel*Frame)                       : 0.143\r\nStream size                              : 565 MiB (81%)\r\nTitle                                    : &#x263B;rDX&#x263B;\r\nDefault                                  : Yes\r\nForced                                   : No\r\n\r\nAudio\r\nID                                       : 1\r\nFormat                                   : MPEG Audio\r\nFormat version                           : Version 1\r\nFormat profile                           : Layer 3\r\nMode                                     : Joint stereo\r\nMode extension                           : MS Stereo\r\nCodec ID                                 : A_MPEG/L3\r\nCodec ID/Hint                            : MP3\r\nDuration                                 : 2 h 10 min\r\nBit rate mode                            : Constant\r\nBit rate                                 : 128 kb/s\r\nChannel(s)                               : 2 channels\r\nSampling rate                            : 48.0 kHz\r\nCompression mode                         : Lossy\r\nStream size                              : 119 MiB (17%)\r\nTitle                                    : &#x263B;rDX&#x263B;\r\nWriting library                          : LAME3.99r\r\nEncoding settings                        : -m j -V 4 -q 2 -lowpass 17 -b 128\r\nDefault                                  : Yes\r\nForced                                   : No","last_updated":"2017-05-23T18:49:07.640Z","parsed":{"xt":"urn:btih:fa58f51d391c5d216700bbc62b0d009a2a3401cb","dn":"Phillauri 2017 Hindi Movies DVDRip XviD AAC New  Sample ~ ☻rDX☻","tr":["udp://exodus.desync.com:6969","udp://open.demonii.com:1337","udp://tracker.coppersurfer.tk:6969","udp://tracker.leechers-paradise.org:6969","udp://zer0day.ch:1337"],"infoHash":"fa58f51d391c5d216700bbc62b0d009a2a3401cb","infoHashBuffer":{"type":"Buffer","data":[250,88,245,29,57,28,93,33,103,0,187,198,43,13,0,154,42,52,1,203]},"name":"Phillauri 2017 Hindi Movies DVDRip XviD AAC New  Sample ~ ☻rDX☻","announce":["udp://exodus.desync.com:6969","udp://open.demonii.com:1337","udp://tracker.coppersurfer.tk:6969","udp://tracker.leechers-paradise.org:6969","udp://zer0day.ch:1337"],"urlList":[]}}